<?xml version="1.0" encoding="utf-8"?>
<!-- Generator: Adobe Illustrator 23.1.0, SVG Export Plug-In . SVG Version: 6.00 Build 0)  -->
<svg version="1.1" id="Layer_1" xmlns="http://www.w3.org/2000/svg" xmlns:xlink="http://www.w3.org/1999/xlink" x="0px" y="0px"
	 viewBox="0 0 204 35.1" style="enable-background:new 0 0 204 35.1;" xml:space="preserve">
<style type="text/css">
	.st0{fill:none;stroke:#38B7AC;stroke-width:0.75;stroke-miterlimit:10;}
	.st1{fill:#38B7AC;}
	.st2{fill:none;stroke:#38B7AC;stroke-miterlimit:10;}
	.st3{fill:#FFFFFF;}
</style>
<path class="st0" d="M-389.2,343.4"/>
<g>
	<g>
		<path class="st1" d="M-387.1,498.2c0-8,3-15.9,8-22.2c5.4-6.7,12.7-11.4,20.9-13.8c8.6-2.6,18-2.9,26.7-0.9
			c8.5,2,15.8,6.9,21.8,13.2c6.5,6.8,11.4,14.9,15.9,23.1c4.7,8.5,8.9,17.5,15.2,24.9c11.5,13.6,30.5,18,47.5,18.6
			c8.8,0.3,18.1-1.1,24.5-7.6c3.3-3.3,5.6-7.4,7.7-11.5c2.3-4.5,4.4-9.1,6.2-13.8c0.9-2.3,1.7-4.7,2.5-7c1-3.1-3.8-4.4-4.8-1.3
			c-1.5,4.8-3.3,9.4-5.4,14c-2,4.3-4.1,8.7-6.8,12.6c-2.3,3.4-5.4,6.2-9.2,7.7c-3.9,1.6-8.2,2-12.4,2c-8.5,0-17.2-1.3-25.3-3.8
			c-8.2-2.6-15.7-7-21.2-13.7c-2.9-3.6-5.3-7.6-7.6-11.6c-2.5-4.4-4.8-8.8-7.3-13.2c-4.6-8.3-9.7-16.4-16.3-23.2
			c-6.2-6.4-13.9-11.6-22.6-13.9c-9-2.4-18.8-2.3-27.9-0.1c-17,4.1-31.8,17.4-34.7,35.2c-0.3,2.1-0.5,4.3-0.6,6.4
			C-392.1,501.4-387.1,501.4-387.1,498.2L-387.1,498.2z"/>
	</g>
</g>
<path class="st2" d="M-388.4,448"/>
<g>
	<g>
		<path class="st1" d="M-389.2,500.7c9.1-1.1,18.3-0.7,27.4-0.7s18.2,0,27.3,0c5.2,0,10.4,0,15.7,0c3.2,0,3.2-5,0-5
			c-18.3,0-36.6,0-54.9,0c-5.2,0-10.4,0-15.5,0.7c-1.3,0.2-2.5,1-2.5,2.5C-391.7,499.4-390.6,500.9-389.2,500.7L-389.2,500.7z"/>
	</g>
</g>
<g>
	<g>
		<path class="st1" d="M-318.5,500.1c8.4,0,16.7,0,25.1,0c3.2,0,3.2-5,0-5c-8.4,0-16.7,0-25.1,0
			C-321.7,495.1-321.7,500.1-318.5,500.1L-318.5,500.1z"/>
	</g>
</g>
<g>
	<g>
		<path class="st1" d="M-360.4,469.7c-0.5,0.4-1.1,0.7-1.6,1.1c-0.4,0.3-1,0.8-1.5,0.9c0.6,0.1,1.3,0.2,1.9,0.3
			c0.3,0.3,0.3,0.2,0-0.3c-0.1-0.3-0.3-0.6-0.4-0.9c-0.3-0.6-0.6-1.2-0.9-1.8c-0.6-1.2-2.4-1.6-3.4-0.9c-2,1.4-4.1,2.7-6.1,4.1
			c1.2,0.5,2.4,1,3.7,1.5c-0.3-1.4-0.6-2.9-0.7-4.4c-0.2-2-2.7-3.5-4.3-1.8c-2.3,2.5-4.2,5.2-5.7,8.2c1.5,0.2,3,0.4,4.6,0.6
			c-0.1-0.9,0-1.7,0.3-2.6c0.9-2.6-3.4-4.5-4.6-1.9c-3.1,6.9-6.2,13.8-9.4,20.8c-0.7,1.7,0.1,3.8,2.2,3.8c23.4-0.3,46.8-0.8,70.3-1
			c6.5-0.1,13,0,19.5,0.6c1.9,0.2,3.1-2.3,2.2-3.8c-4.1-6.6-7.5-13.6-12.5-19.6c-2.3-2.7-4.9-5.2-7.8-7.1c-3.2-2.2-7-3.6-10.7-4.7
			c-7.6-2.3-15.4-4.2-23.3-2.5c-7.1,1.5-13.6,5.4-18.9,10.2c-6.4,5.7-11.3,12.9-16.2,20c1.5,0.6,3,1.3,4.6,1.9
			c0.7-5.3,1.9-10.7,5-15.1c1.5-2.2,3.7-3.9,6-5.3c2.4-1.4,5.2-3.5,8.1-3.4c-0.8-0.8-1.7-1.7-2.5-2.5c-0.3,2.6-1.9,4.9-3.3,7
			c-1.5,2.3-3,4.5-4.7,6.7c-3.5,4.4-7.5,8.3-11.8,11.9c-2,1.6,0.2,4.9,2.4,4.2c4.8-1.5,9.7-1.5,14.7-1.5c5.2,0,10.4,0,15.7,0
			c10.5,0,21.1,0,31.6,0c5.8,0,11.7,0.2,17.5-0.5c1.8-0.2,3.3-2,2.2-3.8c-5.3-8.5-12.3-15.8-20.6-21.4c-4.4-2.9-9.2-5.6-14.5-6.3
			c-5.3-0.8-11-0.4-16.3,0.4c-2.5,0.4-5.1,1.1-7.3,2.5c-2.3,1.4-4.1,3.3-5.8,5.3c-3.4,4.2-6.7,8.6-9,13.5c-0.6,1.1-1.3,2.4-1.3,3.7
			c0,1.6,1.1,2.9,2.5,3.4c1,0.4,2.1,0.4,3.2,0.4c1.6,0,3.2,0,4.7,0c6,0,11.9-0.1,17.9-0.2c13.4-0.2,26.7-0.7,40.1-1.4
			c2.1-0.1,3.3-2.7,1.8-4.3c-7.7-7.8-18.1-12.3-27.7-17.2c-5-2.5-9.8-5.2-15.5-4.6c-5.3,0.6-10.1,3-14.1,6.4
			c-4.5,3.9-7.8,9.1-10.7,14.3c-1,1.7,0.3,3.7,2.2,3.8c19.4,0.6,38.7,0.7,58.1,0.4c2.1,0,2.9-2.1,2.2-3.8c-3.6-8.4-10.6-15-19-18.4
			c-4.5-1.8-9.5-2.7-14.3-2.5c-5.1,0.2-10.5,1.4-14.6,4.5c-4.3,3.3-7.7,8.1-9.7,13.2c-0.6,1.5,0.9,3.2,2.4,3.2
			c8.4-0.2,13.6-7.3,17.1-14.2c0.9-1.8-0.6-4.5-2.8-3.7c-5.2,1.9-9.6,5.4-12.6,10.1c-1.3,2,0.8,4,2.8,3.7c4-0.6,6.8-3.6,9.9-5.8
			c1.5-1,3.1-1.9,4.8-2.2c2-0.3,4,0.2,5.9,0.7c8.1,2.4,15.8,6.2,23.1,10.5c0-1.4,0-2.9,0-4.3c-2.6,1.4-5.5,1.7-8.4,1.8
			c-3.5,0.1-6.9,0-10.4,0c-7.3,0-14.6-0.1-21.9-0.1c0.8,0.8,1.7,1.7,2.5,2.5c0-5.5,3.9-11.4,10.1-10.6c3.3,0.5,6.6,2.1,9.5,3.6
			c3.2,1.5,6.3,3.3,9.3,5.3c0-1.4,0-2.9,0-4.3c-1.4,1.1-3.1,1.4-4.8,1.5c-2.3,0.2-4.6,0.3-6.9,0.3c-2.4,0.1-4.9,0.1-7.3,0.2
			c-2,0-4.3,0.3-6.3,0c-0.3,0-0.9-0.1-0.9-0.4s0.5-1,0.6-1.2c1-1.3,2.7-2,4.3-2.4c4.1-1,8.3,0.5,12.2,1.8c5.2,1.8,10.3,3.6,15.5,5.5
			c-0.4-1.4-0.7-2.8-1.1-4.2c-1.4,1.4-4.1,0.8-5.8,0.6c-3.2-0.4-6.4-0.8-9.7-1.1c-6.4-0.7-12.7-1.5-19.1-2.2
			c0.2,1.6,0.4,3.3,0.7,4.9c2.3-0.9,4.6-1.6,7-2.2c1.2-0.3,2.4-0.6,3.6-0.8c1.2-0.2,2.5-0.6,3.7-0.5c1.5,0.1,2.8,1.4,4,2.3
			c1.6,1.2,3.3,2.2,5.4,2.1c3.2-0.2,3.2-5.1,0-5c-3.9,0.1-7.7,0.1-11.6-0.1c0.4,1.6,0.8,3.1,1.3,4.7c1.6-0.8,3.1-1.6,4.7-2.5
			c2.9-1.5,0.3-5.8-2.5-4.3c-1.6,0.8-3.1,1.6-4.7,2.5c-2.3,1.2-1.1,4.5,1.3,4.7c3.9,0.2,7.7,0.2,11.6,0.1c0-1.7,0-3.3,0-5
			c-1.2,0.1-2.3-1-3.5-1.9c-1.9-1.5-3.8-2.6-6.3-2.5c-2.6,0.1-5.2,0.7-7.7,1.4c-2.5,0.6-5,1.4-7.5,2.3c-2.7,1-2.1,4.6,0.7,4.9
			c6.9,0.8,13.7,1.6,20.6,2.4c3.2,0.4,6.5,0.9,9.8,1.1c2.8,0.2,5.7-0.2,7.8-2.2c1.4-1.4,0.6-3.6-1.1-4.2c-5.4-1.9-10.9-3.9-16.3-5.8
			c-4.8-1.6-10.2-2.9-15.2-1.1c-2.4,0.8-4.6,2.2-6,4.4c-1.4,2.1-1.7,5,0,7c1.6,1.9,4.2,2.1,6.6,2.1c2.8,0,5.5,0,8.3-0.1
			c3.3-0.1,6.5-0.2,9.8-0.4c2.8-0.2,5.7-0.5,8-2.2c1.5-1.1,1.7-3.2,0-4.3c-3.4-2.3-7-4.3-10.7-6s-7.9-3.8-12.1-3.6
			c-8.2,0.4-13.6,7.9-13.5,15.6c0,1.4,1.1,2.5,2.5,2.5c7.6,0,15.2,0.1,22.9,0.1c6.7,0,14.3,0.9,20.4-2.5c1.7-0.9,1.6-3.4,0-4.3
			c-3.9-2.3-7.9-4.4-12-6.2c-4.1-1.9-8.4-3.7-12.7-4.9c-4.5-1.3-8.9-1.1-13,1.3c-3.2,1.9-6,5.4-9.8,6c0.9,1.2,1.9,2.4,2.8,3.7
			c2.3-3.5,5.6-6.3,9.6-7.8c-0.9-1.2-1.9-2.4-2.8-3.7c-2.6,5.1-6.3,11.5-12.8,11.7c0.8,1.1,1.6,2.1,2.4,3.2c1.4-3.8,4.1-7.2,7.1-9.9
			c3.1-2.9,7.5-3.9,11.7-4.1c8.2-0.5,16.3,2.3,22.3,7.9c3.2,3,5.6,6.5,7.3,10.5c0.7-1.3,1.4-2.5,2.2-3.8
			c-19.4,0.3-38.7,0.2-58.1-0.4c0.7,1.3,1.4,2.5,2.2,3.8c4.5-7.9,10.3-16.6,19.9-18.2c4.9-0.8,8.9,1.4,13.1,3.6
			c4.6,2.4,9.3,4.7,13.9,7.2c4.8,2.6,9.4,5.6,13.2,9.5c0.6-1.4,1.2-2.8,1.8-4.3c-10.9,0.6-21.7,1-32.6,1.2
			c-5.4,0.1-10.8,0.2-16.2,0.3c-2.7,0-5.5,0.1-8.2,0.1c-1.2,0-2.5,0-3.7,0c-0.7,0-1.3,0-2,0c-0.1,0-1.6-0.1-1.6-0.1
			c0.1,0.2,0.3,0.5,0.4,0.7c0.2,0.8,0.4,1,0.5,0.6c0.1,0,0.4-0.8,0.4-0.8c0.2-0.5,0.5-0.9,0.7-1.4c0.6-1.1,1.2-2.2,1.9-3.3
			c1.3-2.1,2.7-4.1,4.2-6.1c2.7-3.6,5.5-6.9,10.1-8.1c2.2-0.6,4.4-0.7,6.7-0.8c2.5-0.1,5.1-0.3,7.6-0.2c4.9,0.2,9.2,2.2,13.3,4.7
			c8.4,5.2,15.5,12.4,20.7,20.8c0.7-1.3,1.4-2.5,2.2-3.8c-5.1,0.6-10.3,0.5-15.5,0.5c-5.4,0-10.8,0-16.2,0c-10.6,0-21.3,0-31.9,0
			c-5.8,0-11.7,0-17.3,1.7c0.8,1.4,1.6,2.8,2.4,4.2c4.7-3.8,8.9-8.1,12.6-12.9c1.8-2.4,3.6-4.8,5.2-7.4c1.7-2.8,3.1-5.6,3.5-8.8
			c0.2-1.4-1.3-2.4-2.5-2.5c-3.6-0.2-6.9,1.8-9.8,3.6c-3,1.8-5.7,3.8-7.8,6.6c-3.8,4.9-5.3,11.2-6.2,17.2c-0.4,2.7,2.9,4.4,4.6,1.9
			c7.5-11,16.1-23.2,29.5-27.2c3.2-1,6.4-1.3,9.8-1.1c3.7,0.3,7.3,1.2,10.9,2.2c3.4,0.9,6.8,1.9,9.9,3.6c2.8,1.5,5.3,3.6,7.5,6
			c5.5,6,9,13.5,13.2,20.3c0.7-1.3,1.4-2.5,2.2-3.8c-11.5-1.1-23.1-0.6-34.6-0.4c-11.7,0.2-23.5,0.3-35.2,0.5
			c-6.7,0.1-13.3,0.2-20,0.3c0.7,1.3,1.4,2.5,2.2,3.8c3.1-6.9,6.2-13.8,9.4-20.8c-1.5-0.6-3-1.3-4.6-1.9c-0.6,1.7-0.6,3.5-0.3,5.3
			c0.3,2.1,3.7,2.4,4.6,0.6c1.3-2.6,2.9-5,4.9-7.2c-1.4-0.6-2.8-1.2-4.3-1.8c0.1,1.9,0.4,3.8,0.9,5.7c0.4,1.5,2.3,2.4,3.7,1.5
			c2-1.4,4.1-2.7,6.1-4.1c-1.1-0.3-2.3-0.6-3.4-0.9c0.9,1.8,1.6,4.4,3.7,4.9c2,0.6,4.1-1.5,5.6-2.5
			C-355.2,472.3-357.7,467.9-360.4,469.7L-360.4,469.7z"/>
	</g>
</g>
<g>
	<g>
		<g>
			<path class="st1" d="M-382.6,356.5c3.3-5.1,9.1-8,14.6-10.2c6.1-2.4,12.5-4.1,19.1-5c13.2-1.8,26.7-0.3,39.2,4.3
				c12.7,4.7,23.4,13.4,36,18.4c6.8,2.7,14.1,3.9,21.3,4.8c7.6,1,15.3,1.8,23,1.9c15.6,0.1,31.8-3,44.9-11.8
				c2.7-1.8,0.2-6.1-2.5-4.3c-11.6,7.8-25.6,10.9-39.5,11.1c-7.6,0.1-15.3-0.5-22.9-1.4c-7.2-0.9-14.6-2-21.5-4.5
				c-6.4-2.3-12.3-5.8-18.1-9.2c-6-3.5-12.1-6.9-18.6-9.4c-12.6-4.8-26.4-6.5-39.8-5.1c-7.6,0.8-15,2.6-22.1,5.4
				c-6.7,2.7-13.6,6.1-17.6,12.5C-388.6,356.7-384.3,359.2-382.6,356.5L-382.6,356.5z"/>
		</g>
	</g>
	<g>
		<g>
			<path class="st1" d="M-383.8,357.9c24.4-1,48.9-1.5,73.3-1.4c7,0,14,0.1,21,0.2c3.2,0.1,3.2-4.9,0-5c-24.4-0.4-48.9-0.2-73.3,0.5
				c-7,0.2-14,0.5-20.9,0.7C-387,353.1-387,358.1-383.8,357.9L-383.8,357.9z"/>
		</g>
	</g>
	<g>
		<g>
			<path class="st1" d="M-379.7,356.6c5.3-2.2,10.5-4.5,15.9-6.6c5.2-2,10.6-2.8,16.2-3.4c10.8-1.1,22-2.1,32.6,0.5
				c6.1,1.5,11.7,4.2,17.3,7c0.4-1.6,0.8-3.1,1.3-4.7c-19,2.5-38.2,0.1-57.2-1c-5.4-0.3-10.9-0.5-16.4-0.5c0.7,1.3,1.4,2.5,2.2,3.8
				c1.6-2.6,4.6-3.9,7.4-4.9c4-1.4,8-2.7,12.2-3.4c4.3-0.7,8.4-0.2,12.6,0.9c4.3,1.1,8.5,2.3,12.8,3.6c4.9,1.5,9.7,3.1,14.4,4.8
				c-0.4-1.4-0.7-2.8-1.1-4.2c-0.2,0.2-1.5,0.1-1.8,0.1c-1.2,0-2.3,0.1-3.5,0.1c-2.1,0.1-4.3,0.1-6.4,0.2c-4.5,0.1-8.9,0.2-13.4,0.3
				c-8.9,0.1-17.8,0.1-26.7,0c0.6,1.4,1.2,2.8,1.8,4.3c3.9-3.8,9.6-4.6,14.8-4.8c7-0.3,14.1,0.2,21.1,1.4c0-1.6,0-3.2,0-4.8
				c-6.7,1-13.5,1.3-20.3,1.1c0,1.7,0,3.3,0,5c5.4-0.1,10.8-0.2,16.1-0.4c3.2-0.1,3.2-5.1,0-5c-5.4,0.1-10.8,0.2-16.1,0.4
				c-3.2,0.1-3.2,4.9,0,5c7.3,0.2,14.5-0.3,21.7-1.3c2.4-0.3,2.4-4.4,0-4.8c-7.6-1.3-15.4-1.9-23.2-1.5c-6.3,0.3-12.8,1.7-17.6,6.2
				c-1.6,1.5-0.4,4.2,1.8,4.3c9.4,0.1,18.8,0.2,28.2,0c4.6-0.1,9.2-0.2,13.9-0.3c2.3-0.1,4.6-0.1,6.9-0.2c2.2-0.1,4.6,0,6.3-1.6
				c1.4-1.4,0.6-3.6-1.1-4.2c-8.9-3.2-18-6-27.2-8.4c-4.8-1.2-9.6-1.7-14.5-1c-4.4,0.7-8.7,2.1-12.9,3.5c-4.1,1.4-8.1,3.4-10.4,7.2
				c-1,1.6,0.3,3.8,2.2,3.8c19.1-0.1,38.2,2.8,57.3,2.6c5.4-0.1,10.9-0.4,16.2-1.1c1.1-0.1,2.1-0.7,2.4-1.8c0.3-1-0.2-2.3-1.1-2.8
				c-5.2-2.7-10.4-5.3-16-6.9c-5.5-1.6-11.3-2.3-17.1-2.4c-5.7-0.1-11.4,0.3-17,0.9c-5.8,0.6-11.6,1.1-17.2,2.9
				c-6.3,2-12.4,4.9-18.5,7.5c-1.2,0.5-2.1,1.7-1.7,3.1C-382.5,356-381,357.1-379.7,356.6L-379.7,356.6z"/>
		</g>
	</g>
</g>
<g>
	<g>
		<g>
			<path class="st1" d="M-184,357.3c3.3-5.1,9.1-8,14.6-10.2c6.1-2.4,12.5-4.1,19.1-5c13.2-1.8,26.7-0.3,39.2,4.3
				c12.7,4.7,23.4,13.4,36,18.4c6.8,2.7,14.1,3.9,21.3,4.8c7.6,1,15.3,1.8,23,1.9c15.6,0.1,31.8-3,44.9-11.8
				c2.7-1.8,0.2-6.1-2.5-4.3C0,363.2-14,366.2-27.8,366.5c-7.6,0.1-15.3-0.5-22.9-1.4c-7.2-0.9-14.6-2-21.5-4.5
				c-6.4-2.3-12.3-5.8-18.1-9.2c-6-3.5-12.1-6.9-18.6-9.4c-12.6-4.8-26.4-6.5-39.8-5.1c-7.6,0.8-15,2.6-22.1,5.4
				c-6.7,2.7-13.6,6.1-17.6,12.5C-190,357.5-185.7,360-184,357.3L-184,357.3z"/>
		</g>
	</g>
	<g>
		<g>
			<path class="st1" d="M-185.2,358.8c24.4-1,48.9-1.5,73.3-1.4c7,0,14,0.1,21,0.2c3.2,0.1,3.2-4.9,0-5c-24.4-0.4-48.9-0.2-73.3,0.5
				c-7,0.2-14,0.5-20.9,0.7C-188.4,353.9-188.4,358.9-185.2,358.8L-185.2,358.8z"/>
		</g>
	</g>
	<g>
		<g>
			<path class="st1" d="M-181.1,357.4c5.3-2.2,10.5-4.5,15.9-6.6c5.2-2,10.6-2.8,16.2-3.4c10.8-1.1,22-2.1,32.6,0.5
				c6.1,1.5,11.7,4.2,17.3,7c0.4-1.6,0.8-3.1,1.3-4.7c-19,2.5-38.2,0.1-57.2-1c-5.4-0.3-10.9-0.5-16.4-0.5c0.7,1.3,1.4,2.5,2.2,3.8
				c1.6-2.6,4.6-3.9,7.4-4.9c4-1.4,8-2.7,12.2-3.4c4.3-0.7,8.4-0.2,12.6,0.9c4.3,1.1,8.5,2.3,12.8,3.6c4.9,1.5,9.7,3.1,14.4,4.8
				c-0.4-1.4-0.7-2.8-1.1-4.2c-0.2,0.2-1.5,0.1-1.8,0.1c-1.2,0-2.3,0.1-3.5,0.1c-2.1,0.1-4.3,0.1-6.4,0.2c-4.5,0.1-8.9,0.2-13.4,0.3
				c-8.9,0.1-17.8,0.1-26.7,0c0.6,1.4,1.2,2.8,1.8,4.3c3.9-3.8,9.6-4.6,14.8-4.8c7-0.3,14.1,0.2,21.1,1.4c0-1.6,0-3.2,0-4.8
				c-6.7,1-13.5,1.3-20.3,1.1c0,1.7,0,3.3,0,5c5.4-0.1,10.8-0.2,16.1-0.4c3.2-0.1,3.2-5.1,0-5c-5.4,0.1-10.8,0.2-16.1,0.4
				c-3.2,0.1-3.2,4.9,0,5c7.3,0.2,14.5-0.3,21.7-1.3c2.4-0.3,2.4-4.4,0-4.8c-7.6-1.3-15.4-1.9-23.2-1.5c-6.3,0.3-12.8,1.7-17.6,6.2
				c-1.6,1.5-0.4,4.2,1.8,4.3c9.4,0.1,18.8,0.2,28.2,0c4.6-0.1,9.2-0.2,13.9-0.3c2.3-0.1,4.6-0.1,6.9-0.2c2.2-0.1,4.6,0,6.3-1.6
				c1.4-1.4,0.6-3.6-1.1-4.2c-8.9-3.2-18-6-27.2-8.4c-4.8-1.2-9.6-1.7-14.5-1c-4.4,0.7-8.7,2.1-12.9,3.5c-4.1,1.4-8.1,3.4-10.4,7.2
				c-1,1.6,0.3,3.8,2.2,3.8c19.1-0.1,38.2,2.8,57.3,2.6c5.4-0.1,10.9-0.4,16.2-1.1c1.1-0.1,2.1-0.7,2.4-1.8c0.3-1-0.2-2.3-1.1-2.8
				c-5.2-2.7-10.4-5.3-16-6.9c-5.5-1.6-11.3-2.3-17.1-2.4c-5.7-0.1-11.4,0.3-17,0.9c-5.8,0.6-11.6,1.1-17.2,2.9
				c-6.3,2-12.4,4.9-18.5,7.5c-1.2,0.5-2.1,1.7-1.7,3.1C-183.9,356.8-182.4,357.9-181.1,357.4L-181.1,357.4z"/>
		</g>
	</g>
</g>
<g>
	<g>
		<path class="st1" d="M-343.6,404.1c13.5-2.6,26.9-5.3,40.4-7.9c2.8-0.6,2.1-4.9-0.7-4.9c-3.6,0-7.2-0.1-10.8-0.1
			c0.2,1.6,0.4,3.3,0.7,4.9c17.4-2.4,34.8-4.4,52.3-6c5-0.5,10-0.9,15.1-1.3c3.2-0.3,3.3-5,0-5c-19-0.2-38.1-0.4-57.1-0.6
			c0,1.7,0,3.3,0,5c28.9-1,57.7-1.7,86.6-2c8.1-0.1,16.3-0.2,24.4-0.2c3.2,0,3.2-5,0-5c-18.5,0-37.1,0-55.6,0c-2.3,0-4.7,0.2-6.9,0
			c-0.3,0-0.7-0.1-1-0.3c-0.2-0.1-0.5-0.2-0.2-0.1c0,0,0.2,0.4,0.1,0.1c-0.1-0.2,0.1-0.1,0,0.1s0.1-0.1,0.1-0.1
			c-0.2,0.3-0.4,0.5-0.7,0.5c-0.4,0.1-0.4,0.1-0.1,0.1c0-1.7,0-3.3,0-5c-17.3,0.1-34.6-1.1-51.6-3.8c-4.9-0.8-9.8-1.6-14.7-2.6
			c0.4,1.4,0.7,2.8,1.1,4.2c4.3-3.5,10.1-4.7,15.3-5.9c2.8-0.6,2.1-4.9-0.7-4.9c-19,0.1-38-0.9-56.9-2.9c0,1.7,0,3.3,0,5
			c13.2-0.5,26.4-0.7,39.7-0.5c0-1.7,0-3.3,0-5c-4.4,0-8.8,0-13.3-0.1c0.2,1.6,0.4,3.3,0.7,4.9c9.8-2.6,19.9-2.8,30-3
			c5-0.1,10-0.2,15,0.3c4.8,0.5,9.5,1.7,14,3.6c4.3,1.8,8.3,4,12.5,5.9c4.5,2,9.2,3.7,14,4.7c5,1.1,10,1.7,15.1,2.3
			c4.6,0.5,9.2,1,13.7,1.2c10.2,0.4,20.7-0.9,29.6-6.1c2.1-1.2,1.2-4.7-1.3-4.7c-6.4,0-12.7,0.1-19.1,0.1c-6,0-12.2,0.3-18.2-0.7
			s-11.7-3.2-17.6-4.9c-5.7-1.6-11.4-3-17.2-4.1c-23.7-4.5-48-4.8-72.1-4c-6.7,0.2-13.5,0.5-20.2,0.9c-6.7,0.3-13.8,0.2-20.2,2.6
			c-1.9,0.8-2.6,3.4-0.6,4.6c5.3,3.2,11.8,4,17.7,2.2c-1.1-0.8-2.1-1.6-3.2-2.4c1.2,9,0.2,18-2.9,26.6c-0.3,0.8,0,1.9,0.6,2.4
			c1.9,1.6,4.2,2,6.7,1.8c1.8-0.2,4.3-0.8,5.8-0.4c0.4,0.1,0.6,0.2,0.8,0.3c0.2,0.2,0.6,0.6,0.7,0.9c0.6,1.3,0.8,2.9,1.2,4.3
			c0.9,3.3,1.7,6.5,2.6,9.8c0.3,1.3,1.8,2.1,3.1,1.7c4.6-1.3,9.2-2.7,13.9-4c1.6-0.4,3.3-0.8,4.5,0.2c0.9,0.7,1.6,2,2.2,3.2
			c1.6,3,2.9,5.9,5.7,8c2.9,2.1,6.5,2.9,10,3.1c3.7,0.2,7.5-0.2,11.2-0.6c4.6-0.5,9.2-1,13.7-1.5c9.1-1.1,18.3-2.4,27.3-3.9
			c18.1-3,36-6.9,53.5-12.3c4.3-1.3,8.7-2.5,12.8-4.3c3.6-1.6,5.7-4.9,6.3-8.7c0.6-3.5,1.5-10-3.6-10.2c-1,0-2.1,0.2-3.1,0.4
			c-1.2,0.2-2.4,0.3-3.7,0.5c-2.4,0.3-4.7,0.6-7.1,0.8c-18.7,2-37.6,2.7-56.4,2.2c-2.4-0.1-4.7-0.1-7.1-0.3c0.4,1.6,0.8,3.1,1.3,4.7
			c6.1-3.9,13-6.2,20.2-6.7c3.2-0.2,3.2-5,0-5c-31,0.1-62,0.2-93,0.2c-8.8,0-17.7,0-26.5,0.1c0,1.7,0,3.3,0,5
			c18.1-1.6,36.2-4,54.1-7.4c2.8-0.5,2.1-4.9-0.7-4.9c-10.5-0.2-21.1-0.3-31.6-0.5c-5.2-0.1-10.5-0.2-15.7-0.3c-2.7,0-5.3-0.1-8-0.1
			c-0.9,0-1.9,0-2.7-0.1c-0.3-0.1-0.6-0.3-0.8-0.3c0.1,0.1,0.1,0.1-0.1-0.1c0.2,0.1,0.2,0.3,0.2,0.5c-0.2,0.6-0.5,1.2-0.7,1.8
			c4.7-3.9,10.5-6.4,16.5-7.4c-1-0.6-2.1-1.2-3.1-1.7c0.5,2.1,0.7,4.3,0.7,6.5c0,1.6,1.6,2.8,3.2,2.4c11.3-3,22.7-5.6,34.2-7.9
			c-0.8-1.4-1.6-2.8-2.4-4.2c-1.9,1.8-2.2,4.5-1.1,6.8c0.4,0.8,1.3,1.2,2.2,1.2c9.6,0.4,19.2,0.1,28.7-0.8c-0.6-1.4-1.2-2.8-1.8-4.3
			c-4.8,4.9-9.5,9.8-14.3,14.6c-0.8,0.8-1,2.1-0.4,3c0.6,1,1.7,1.3,2.8,1.1c6.8-1.1,13.7-1.8,20.6-2.2c-0.7-1.3-1.4-2.5-2.2-3.8
			c-2,4-4,7.9-5.9,11.9c-0.8,1.7,0.2,3.7,2.2,3.8c9.6,0.2,18.8-2.8,28.1-4.5c8.8-1.7,17.7-1,26.6-1.9c5.1-0.5,10.1-1.5,14.8-3.7
			c2.3-1,1.1-4.7-1.3-4.7c-18.2,0.7-36.4,1.2-54.5,1.6c-18.2,0.4-36.4,0.5-54.6,0.5c-5.1,0-10.3,0-15.4,0c-4.3,0-8.8-0.1-12.7-2
			c0.4,0.7,0.8,1.4,1.2,2.2c0.5-4.8,5.2-8.3,8.7-11.1c0.9-0.7,0.9-2.2,0.4-3c-0.6-1-1.7-1.4-2.8-1.1c-5.9,1.3-11.8,2.6-17.7,3.9
			c-2.9,0.6-5.8,1.3-8.7,1.9c-1.3,0.3-2.6,0.7-4,0.8c-0.3,0-1.3-0.2-1.3,0c0.8-3.1-4-4.4-4.8-1.3c-0.9,3.5,2.2,6.3,5.5,6.4
			c1.7,0,3.5-0.5,5.2-0.9c1.9-0.4,3.7-0.8,5.6-1.2c7.2-1.6,14.4-3.1,21.6-4.7c-0.8-1.4-1.6-2.8-2.4-4.2c-4.8,3.8-9.5,8.2-10.2,14.6
			c-0.1,0.8,0.5,1.8,1.2,2.2c3.8,1.9,7.9,2.5,12.1,2.6c4.4,0.2,8.8,0.1,13.2,0.1c9.2,0,18.4,0,27.7-0.1c18.5-0.2,37-0.5,55.5-1
			c10.4-0.3,20.7-0.6,31.1-1c-0.4-1.6-0.8-3.1-1.3-4.7c-7.7,3.5-16.5,3.3-24.8,3.6c-4.5,0.1-9.1,0.4-13.5,1.2
			c-4.5,0.8-9,1.9-13.5,2.9c-5,1.1-10,1.9-15.2,1.8c0.7,1.3,1.4,2.5,2.2,3.8c2-4,4-7.9,5.9-11.9c0.8-1.6-0.1-3.9-2.2-3.8
			c-7.3,0.4-14.6,1.2-21.9,2.4c0.8,1.4,1.6,2.8,2.4,4.2c4.8-4.9,9.5-9.8,14.3-14.6c1.4-1.4,0.5-4.5-1.8-4.3
			c-9.5,0.9-19.1,1.2-28.7,0.8c0.7,0.4,1.4,0.8,2.2,1.2c-0.1-0.3,0.1-0.5,0.3-0.7c2-1.8-0.1-4.6-2.4-4.2
			c-11.5,2.3-22.9,4.9-34.2,7.9c1.1,0.8,2.1,1.6,3.2,2.4c0-2.6-0.3-5.2-0.9-7.8c-0.3-1.4-1.8-2-3.1-1.7c-5.2,0.9-10.3,2.8-14.7,5.7
			c-1.1,0.7-2.1,1.4-3.1,2.2c-0.7,0.5-1.4,1-1.6,1.9c-0.2,0.8,0,1.7,0.4,2.5c1,2.2,3.5,2.9,5.7,3.1c2.9,0.2,5.8,0.1,8.7,0.2
			c3.2,0.1,6.3,0.1,9.5,0.2c6.1,0.1,12.3,0.2,18.4,0.3c7,0.1,13.9,0.2,20.9,0.3c-0.2-1.6-0.4-3.3-0.7-4.9
			c-17.5,3.3-35.1,5.7-52.8,7.2c-1.3,0.1-2.5,1.1-2.5,2.5s1.1,2.5,2.5,2.5c31-0.1,62-0.2,93-0.2c8.8,0,17.7,0,26.5-0.1
			c0-1.7,0-3.3,0-5c-8.1,0.5-15.9,3-22.7,7.3c-2.1,1.4-1.2,4.6,1.3,4.7c18.1,0.8,36.3,0.4,54.4-1.1c4.6-0.4,9.1-0.8,13.7-1.4
			c2.2-0.3,4.4-0.5,6.6-0.8c0.6-0.1,1.3-0.2,1.9-0.3c0.1,0,0.3,0,0.3,0c0.5-0.3-0.7-0.6-0.6-0.7V384c0,0.1,0,0.2,0,0.4
			c0,0.2,0,0.4,0,0.5c0,0.5,0,1,0,1.5c-0.1,3.1-0.6,6.3-3.6,7.8c-1.7,0.8-3.5,1.3-5.3,1.9c-2.1,0.7-4.2,1.4-6.3,2
			c-16.8,5.2-34,9.1-51.4,12.1c-8.6,1.5-17.3,2.7-26,3.8c-4.4,0.5-8.8,1-13.3,1.5c-3.8,0.4-7.7,0.9-11.6,1c-3,0.1-6.3-0.1-9-1.7
			c-2.6-1.5-3.7-4.1-5-6.6c-1.4-2.8-3.3-5.6-6.5-6.4c-2.3-0.6-4.6-0.1-6.8,0.6c-2.2,0.6-4.3,1.2-6.5,1.9c-2.2,0.6-4.5,1.3-6.7,1.9
			c1,0.6,2.1,1.2,3.1,1.7c-0.9-3.4-1.8-6.9-2.7-10.3c-0.8-2.9-1.4-6.1-4.2-7.7c-2.1-1.2-4.5-1.1-6.8-0.8c-1.1,0.1-2.2,0.3-3.4,0.3
			c-0.8,0-1.5-0.1-1.9-0.4c0.2,0.8,0.4,1.6,0.6,2.4c3.2-8.9,4.3-18.5,3-27.9c-0.2-1.5-1.4-2.9-3.2-2.4c-4.7,1.4-9.7,0.8-13.9-1.7
			c-0.2,1.5-0.4,3-0.6,4.6c5.5-2.1,11.4-2.1,17.2-2.4c6-0.3,12.1-0.6,18.1-0.8c12-0.5,24-0.7,36-0.3c11.8,0.4,23.6,1.4,35.3,3.4
			c5.9,1,11.7,2.3,17.5,3.8c5.8,1.6,11.5,3.7,17.3,5.1c6.8,1.6,13.6,1.6,20.5,1.5c7.1,0,14.2-0.1,21.3-0.1c-0.4-1.6-0.8-3.1-1.3-4.7
			c-7.6,4.5-16.5,5.6-25.2,5.5c-4.5-0.1-9.1-0.5-13.6-1c-4.8-0.5-9.7-1.1-14.5-2.1c-4.8-0.9-9.4-2.3-13.8-4.3
			c-4.3-1.9-8.4-4.1-12.7-6c-4.5-1.9-9.1-3.4-14-4.1c-5-0.7-10.1-0.8-15.2-0.7c-11.3,0.1-22.9,0.2-33.9,3.2
			c-2.7,0.7-2.2,4.9,0.7,4.9c4.4,0,8.8,0,13.3,0.1c3.2,0,3.2-5,0-5c-13.2-0.2-26.4,0-39.7,0.5c-3.3,0.1-3.2,4.7,0,5
			c18.9,2,37.9,2.9,56.9,2.9c-0.2-1.6-0.4-3.3-0.7-4.9c-6.3,1.4-12.4,3.1-17.5,7.1c-1.4,1.2-0.6,3.8,1.1,4.2
			c17.3,3.5,34.9,5.6,52.5,6.3c5,0.2,10.1,0.3,15.1,0.3c3.2,0,3.2-4.8,0-5c-2.2-0.1-3.9,1.7-4.2,3.8c-0.3,2.2,0.8,4.2,2.8,5.2
			c2.1,1,4.4,0.8,6.7,0.8c2.7,0,5.5,0,8.2,0c10.8,0,21.7,0,32.5,0c6.1,0,12.2,0,18.4,0c0-1.7,0-3.3,0-5c-28.9,0.2-57.8,0.7-86.6,1.5
			c-8.1,0.2-16.3,0.5-24.4,0.8c-3.2,0.1-3.2,5,0,5c19,0.2,38.1,0.4,57.1,0.6c0-1.7,0-3.3,0-5c-17.8,1.4-35.6,3.3-53.3,5.5
			c-5.1,0.6-10.3,1.3-15.4,2c-1.2,0.2-2,1.7-1.8,2.7c0.2,1.2,1.2,2.2,2.5,2.2c3.6,0,7.2,0.1,10.8,0.1c-0.2-1.6-0.4-3.3-0.7-4.9
			c-13.5,2.6-26.9,5.3-40.4,7.9c-1.3,0.3-2.1,1.8-1.7,3.1C-346.3,403.7-344.9,404.3-343.6,404.1L-343.6,404.1z"/>
	</g>
</g>
<g>
	<g>
		<g>
			<path class="st1" d="M201.4,24.2c1.8,2.7,10.5,5.1,8.8,2.4c-4.1-6.4-15.3-14.7-22-17.4c-7.1-2.8-14.5-4.6-22.1-5.4
				c-13.4-1.5-27.2,0.3-39.6,5.1c-6.5,2.5-12.6,5.9-18.6,9.4c-5.8,3.4-11.7,6.9-18.1,9.2C82.9,30,75.5,31.1,68.3,32
				c-7.6,0.9-15.3,1.5-22.9,1.4c-13.9-0.2-27.9-3.3-39.5-11.1c-2.7-1.8-5.2,2.5-2.5,4.3c13.1,8.8,29.3,11.9,44.9,11.8
				c7.7-0.1,15.4-0.9,23-1.9c7.2-0.9,14.5-2.1,21.3-4.8c12.6-5,23.3-13.7,36-18.4c12.5-4.6,26-6.1,39.1-4.3c6.6,0.9,13,2.6,19.1,5
				C192.3,16.2,198.1,19.1,201.4,24.2L201.4,24.2z"/>
		</g>
	</g>
	<g>
		<g>
			<path class="st1" d="M201.6,22.3c3.2,0,3.2-5,0-5c-7.6-0.1-15.2-0.2-22.8-0.2c-13.3-0.1-26.6-0.1-39.9,1.1
				c-13.4,1.2-26.8,3-40.3,2.6c0.3,1.6,0.5,3.3,0.7,4.9c4-1,7.7-2.6,11.4-4.2c3.5-1.5,7.1-2.9,10.7-4.1c12.9-4.4,26.5-7,40.2-6.7
				c6.7,0.2,13.4,1.1,19.9,2.7c3.2,0.8,6.3,1.8,9.4,3c1.6,0.6,3.2,1.3,4.8,2c0.8,0.4,2.1,0.9,2.4,1.8c0.5-1,1.1-2.1,1.7-3.1
				c-1.7,0.7-3.5,0.6-5.3,0.6c-2.2,0-4.3-0.1-6.5-0.1c-4.2-0.1-8.3-0.2-12.5-0.3c-8.5-0.1-17-0.3-25.5-0.5c0,1.7,0,3.3,0,5
				c14.6,0.1,29.2,0.2,43.7,1.2c0-1.7,0-3.3,0-5c-6,0.3-12.1,0.5-18.1,0.7c-21.5,0.6-42.9,0.7-64.4,0.3c-2.8-0.1-3.5,4.3-0.7,4.9
				c5.8,1.2,11.6-0.3,17.3-1.3c10.2-1.9,20.5-3.4,30.8-4.8c5.1-0.7,10.1-1.4,15.2-2.1c4.9-0.7,10-1.2,14.9-0.3
				c0.3-1.6,0.5-3.3,0.7-4.9c-0.7,0-1.5,0-2.2,0c-2.2,0-3.4,2.8-1.8,4.3c1.5,1.5,3.3,2.8,5.3,3.7c0.5-1.6,0.9-3.1,1.3-4.7
				c-5.6-0.3-11.1-0.5-16.7-0.7c-19.5-0.5-39-0.1-58.4,1.3c0.5,1.6,0.9,3.1,1.3,4.7c3.8-2.5,7.7-5.1,12-6.7
				c4.1-1.5,8.4-2.4,12.8-2.8c4.5-0.5,9.1-0.4,13.6-0.3c2.2,0.1,4.5,0.2,6.7,0.3c1.2,0,3.1,0.1,3.7,1.1c0.8-1.3,1.5-2.5,2.2-3.8
				c-7.1,0.9-14.2-0.1-21.3,0.4c-6.8,0.5-13.4,2.2-19.6,5c-1.9,0.9-1.4,4.2,0.6,4.6c5.9,1.1,12,0.1,17.9-0.5
				c6.1-0.6,12.3-1.2,18.4-1.8c1.3-0.1,2.5-1,2.5-2.5c0-1.3-1.2-2.6-2.5-2.5c-6,0.5-11.9,1.1-17.9,1.7c-2.9,0.3-5.9,0.6-8.8,0.8
				c-2.7,0.3-5.5,0.4-8.2-0.1c0.2,1.6,0.4,3.1,0.6,4.6c5.6-2.5,11.8-4,18-4.3c6.8-0.4,13.6,0.4,20.4-0.4c1.8-0.3,3.3-2,2.2-3.8
				c-2.3-3.6-6.9-3.5-10.7-3.7C152.9,4,145,3.9,137.2,5.3c-3.8,0.7-7.5,1.8-11.1,3.4c-3.7,1.6-7.1,3.8-10.4,6
				c-1.9,1.3-1.3,4.9,1.3,4.7c5.5-0.4,11-0.8,16.6-1c19.4-0.9,38.9-0.7,58.4,0.4c2.4,0.1,3.5-3.6,1.3-4.7c-1.6-0.7-3-1.7-4.3-2.9
				c-0.6,1.5-1.2,2.9-1.8,4.3c0.7,0,1.5,0,2.2,0c2.8,0,3.5-4.4,0.7-4.9c-5.8-1.2-11.6-0.6-17.4,0.2c-10.3,1.4-20.7,2.8-31,4.4
				c-5.2,0.8-10.3,1.6-15.4,2.5c-4.7,0.8-9.6,2.2-14.4,1.2c-0.3,1.6-0.5,3.3-0.7,4.9c6.1,0.1,12.1,0.2,18.2,0.2
				c21.5,0.1,42.9-0.3,64.4-1.2c3.2-0.1,3.2-4.8,0-5c-14.5-1-29.1-1.1-43.7-1.2c-3.2,0-3.2,4.9,0,5c8.7,0.2,17.3,0.4,26,0.6
				c4.3,0.1,8.7,0.2,13,0.3c2.1,0,4.3,0.1,6.4,0.1c1.9,0,3.9-0.1,5.7-0.8c1.2-0.5,2.1-1.7,1.7-3.1c-1.2-3.9-5.6-5.2-9-6.6
				c-3.6-1.4-7.3-2.6-11.1-3.6c-14-3.5-28.7-3.6-43-1.1c-7.2,1.3-14.4,3.2-21.3,5.7c-3.5,1.2-6.9,2.6-10.3,4.1
				c-3.3,1.5-6.7,2.9-10.2,3.7c-2.8,0.6-2,4.8,0.7,4.9c7.5,0.2,15.1-0.2,22.6-0.9c13.2-1.2,26.4-2.7,39.7-2.8
				C174.6,21.9,188.1,22.1,201.6,22.3L201.6,22.3z"/>
		</g>
	</g>
	<g>
		<g>
			<path class="st1" d="M97.8,25.8c3.2,0,3.2-5,0-5S94.6,25.8,97.8,25.8L97.8,25.8z"/>
		</g>
	</g>
</g>
<path class="st3" d="M211.3,45.5c0,24.4-27.8,46.7-58.2,46.7S87.5,70.8,87.5,46.4s36.8-40.8,65.6-42.6
	C183.5,1.9,211.3,21.1,211.3,45.5z"/>
</svg>
