<?xml version="1.0" encoding="utf-8"?>
<!-- Generator: Adobe Illustrator 23.1.0, SVG Export Plug-In . SVG Version: 6.00 Build 0)  -->
<svg version="1.1" id="Layer_1" xmlns="http://www.w3.org/2000/svg" xmlns:xlink="http://www.w3.org/1999/xlink" x="0px" y="0px"
	 viewBox="0 0 225.9 42.3" style="enable-background:new 0 0 225.9 42.3;" xml:space="preserve">
<style type="text/css">
	.st0{fill:#070707;}
	.st1{fill:#050505;}
	.st2{fill:none;stroke:#050505;stroke-miterlimit:10;}
	.st3{fill:#FFFFFF;}
</style>
<g>
	<path class="st0" d="M112.6-664.2H112c0,0.1,0,0.1,0,0.2h-0.7l0.8,4.4c7.2,20,24.8,35.5,44.6,43.8c19.5,8.2,41.5,10.3,62.2,5.9
		c5-1.1,10-2.5,14.3-5.3c6.7-4.4,10.9-11.5,14.8-18.5c5.3-9.3,12.1-19.8,13.8-30.4L112.7-664L112.6-664.2z"/>
	<path class="st0" d="M364.5-715.6c-19.5-8.2-43.8-10.3-64.5-5.9c-5,1.1-7.8,2.5-12,5.3c-6.7,4.4-10.9,11.5-14.8,18.5
		c-5.3,9.3-9.8,23-11.5,33.6l149.5-0.1C405.1-686.4,385.7-706.7,364.5-715.6z"/>
</g>
<rect x="73.4" y="-966.5" class="st1" width="335.8" height="146.9"/>
<g>
	<g>
		<path class="st1" d="M1062.6-792.7c11.9,1.3,24.8,5.7,33.2,14.7c3.7,4,6.3,8.8,9.2,13.4c3,4.8,6.4,9.3,11.1,12.6
			c4.1,2.8,10.4,4.8,12,9.9c1,3,5.8,1.7,4.8-1.3c-1.8-5.7-6.9-8.5-11.7-11.3c-4.7-2.8-8.2-6.6-11.2-11.2c-3.2-4.9-6-10.2-9.9-14.6
			c-4.2-4.8-9.7-8.5-15.4-11.1c-7-3.3-14.5-5.1-22.1-6c-1.3-0.1-2.5,1.3-2.5,2.5C1060.1-793.8,1061.3-792.9,1062.6-792.7
			L1062.6-792.7z"/>
	</g>
</g>
<g>
	<g>
		<path class="st1" d="M743.1-741.5c16.4-20.1,36.8-37.6,60.9-47.8c7.4-3.1,15.2-5.3,23.1-5.9c1.3-0.1,2.5-1.1,2.5-2.5
			c0-1.3-1.1-2.6-2.5-2.5c-14.4,1-28.1,6.8-40.5,14c-11.6,6.8-22.3,15.2-31.9,24.5c-5.4,5.2-10.4,10.8-15.1,16.6c-0.9,1-1,2.5,0,3.5
			C740.4-740.7,742.2-740.5,743.1-741.5L743.1-741.5z"/>
	</g>
</g>
<path class="st2" d="M1059.4-846.9"/>
<path class="st3" d="M225.9,42.3V0H0v42.3h5.1C23,41.2,38.7,36,50,29.9c5.8-3.1,11.1-6.6,18.1-9.2c6.7-2.5,14.4-4.2,22.9-5
	c16.9-1.6,35.1-1.6,51.4,1.2c15.7,2.7,26.2,8.1,37.2,13.6c12.2,6.1,25.3,11.3,44.4,11.8C229.3,42.4,225.4,42.3,225.9,42.3z"/>
</svg>
