<?xml version="1.0" encoding="utf-8"?>
<!-- Generator: Adobe Illustrator 23.1.0, SVG Export Plug-In . SVG Version: 6.00 Build 0)  -->
<svg version="1.1" id="Layer_1" xmlns="http://www.w3.org/2000/svg" xmlns:xlink="http://www.w3.org/1999/xlink" x="0px" y="0px"
	 viewBox="0 0 225.9 93" style="enable-background:new 0 0 225.9 93;" xml:space="preserve">
<style type="text/css">
	.st0{fill:#070707;}
	.st1{fill:#050505;}
	.st2{fill:none;stroke:#050505;stroke-miterlimit:10;}
	.st3{fill:#FFFFFF;}
</style>
<g>
	<path class="st0" d="M112.6-613.5H112c0,0.1,0,0.1,0,0.2h-0.7l0.8,4.4c7.2,20,24.8,35.5,44.6,43.8c19.5,8.2,41.5,10.3,62.2,5.9
		c5-1.1,10-2.5,14.3-5.3c6.7-4.4,10.9-11.5,14.8-18.5c5.3-9.3,12.1-19.8,13.8-30.4l-149.1,0.1L112.6-613.5z"/>
	<path class="st0" d="M364.5-664.9c-19.5-8.2-43.8-10.3-64.5-5.9c-5,1.1-7.8,2.5-12,5.3c-6.7,4.4-10.9,11.5-14.8,18.5
		c-5.3,9.3-9.8,23-11.5,33.6l149.5-0.1C405.1-635.7,385.7-656,364.5-664.9z"/>
</g>
<rect x="73.4" y="-915.8" class="st1" width="335.8" height="146.9"/>
<g>
	<g>
		<path class="st1" d="M1062.6-742c11.9,1.3,24.8,5.7,33.2,14.7c3.7,4,6.3,8.8,9.2,13.4c3,4.8,6.4,9.3,11.1,12.6
			c4.1,2.8,10.4,4.8,12,9.9c1,3,5.8,1.7,4.8-1.3c-1.8-5.7-6.9-8.5-11.7-11.3c-4.7-2.8-8.2-6.6-11.2-11.2c-3.2-4.9-6-10.2-9.9-14.6
			c-4.2-4.8-9.7-8.5-15.4-11.1c-7-3.3-14.5-5.1-22.1-6c-1.3-0.1-2.5,1.3-2.5,2.5C1060.1-743.1,1061.3-742.2,1062.6-742L1062.6-742z"
			/>
	</g>
</g>
<g>
	<g>
		<path class="st1" d="M743.1-690.8c16.4-20.1,36.8-37.6,60.9-47.8c7.4-3.1,15.2-5.3,23.1-5.9c1.3-0.1,2.5-1.1,2.5-2.5
			c0-1.3-1.1-2.6-2.5-2.5c-14.4,1-28.1,6.8-40.5,14c-11.6,6.8-22.3,15.2-31.9,24.5c-5.4,5.2-10.4,10.8-15.1,16.6c-0.9,1-1,2.5,0,3.5
			C740.4-690,742.2-689.8,743.1-690.8L743.1-690.8z"/>
	</g>
</g>
<path class="st2" d="M1059.4-796.2"/>
<path class="st3" d="M225.9,92.9V0H0v93h5.1C23,90.6,38.7,79.2,50,65.8c5.8-6.9,11.1-14.4,18.1-20.2c6.7-5.6,14.4-9.2,22.9-11
	c16.9-3.6,35.1-3.6,51.4,2.6c15.7,6,26.2,17.7,37.2,29.8c12.2,13.4,25.3,24.8,44.4,25.9C229.3,93.2,225.4,92.9,225.9,92.9z"/>
</svg>
