<?xml version="1.0" encoding="utf-8"?>
<!-- Generator: Adobe Illustrator 23.1.0, SVG Export Plug-In . SVG Version: 6.00 Build 0)  -->
<svg version="1.1" id="Layer_1" xmlns="http://www.w3.org/2000/svg" xmlns:xlink="http://www.w3.org/1999/xlink" x="0px" y="0px"
	 viewBox="0 0 216.5 64" style="enable-background:new 0 0 216.5 64;" xml:space="preserve">
<style type="text/css">
	.st0{fill:#110E0E;}
	.st1{fill:#FFFFFF;}
</style>
<path class="st0" d="M266.4-255.5c-6.1-22.2-25.5-42.5-46.7-51.4c-19.5-8.2-43.8-10.3-64.5-5.9c-0.6,0.1-1.2,0.3-1.8,0.4v13.2h-18.1
	c-2.8,6-6.3,11.7-9.4,17.1c-1.1,2-2.2,4-3.4,5.9c-2.6,7-4.6,14.4-5.6,20.7L266.4-255.5z"/>
<rect x="112.5" y="-299.2" class="st0" width="32.5" height="22.6"/>
<g>
	<path class="st1" d="M37.1,0L37.1,0l-0.6,0c0,0,0,0,0,0l-6.1,0c0,0,0,0,0,0.1H16.7v0c4,1,6.6,2.4,10.2,4.9
		c6.7,4.4,13.2,14.8,14.8,18.5c1.6,3.7,4.3,10.4,5.9,12.9c1.5,2.5,6.6,11.1,11.4,14.3c4.3,2.8,9.2,5.9,20.2,8.8
		c10.8,2.9,20.3,4.3,29,4.5c0-21.3,0-42.6,0-63.8L37.1,0z"/>
	<path class="st1" d="M186.3,0.1C186.3,0,186.3,0,186.3,0.1L183.4,0h0l-3.2,0c0,0,0,0,0,0h-0.6v0l-71.2,0.1l-0.1,0
		c0,21.3,0,42.6,0,63.8c13.8,0.3,25.5-2.5,37.5-7.5c6-2.5,10.9-5.8,15-9.9c3.3-2.9,6-6.5,8.3-10.3c0.1-0.3,0.2-0.6,0.3-0.9
		c2.7-4.5,5.1-9.5,7.3-15.1c3.4-5.9,7.3-11.7,13.1-15.4c3.7-2.5,6.3-3.8,10.2-4.9v0H186.3z"/>
</g>
</svg>
