<?xml version="1.0" encoding="utf-8"?>
<!-- Generator: Adobe Illustrator 23.1.0, SVG Export Plug-In . SVG Version: 6.00 Build 0)  -->
<svg version="1.1" id="Layer_1" xmlns="http://www.w3.org/2000/svg" xmlns:xlink="http://www.w3.org/1999/xlink" x="0px" y="0px"
	 viewBox="0 0 228.9 64" style="enable-background:new 0 0 228.9 64;" xml:space="preserve">
<style type="text/css">
	.st0{fill:#110E0E;}
	.st1{fill:#FFFFFF;}
</style>
<path class="st0" d="M210.1-252.6c-6.1-22.2-25.5-42.5-46.7-51.4c-19.5-8.2-43.8-10.3-64.5-5.9c-0.6,0.1-1.2,0.3-1.8,0.4v13.2H79
	c-2.8,6-6.3,11.7-9.4,17.1c-1.1,2-2.2,4-3.4,5.9c-2.6,7-4.6,14.4-5.6,20.7L210.1-252.6z"/>
<path class="st1" d="M77.2,0.1C77.2,0,77.2,0,77.2,0.1L74.3,0h0l-3.2,0c0,0,0,0,0,0h-0.6v0L-0.8,0.1L-72,0v0h-0.6c0,0,0,0,0,0
	l-6.1,0c0,0,0,0,0,0.1h-13.7L-99.8,0c13.3,0.8,14.1,2.6,20.2,5.8c3.5,1.9,11.4,14,12.9,17.8c1.6,3.7,5.4,11.8,7,14.3
	s4.8,9.5,9.6,12.7c4.3,2.8,9.2,5.9,20.2,8.8c28,7.5,47,5.3,66.5-2.9c6-2.5,10.9-5.8,15-9.9c3.3-2.9,6-6.5,8.3-10.3
	c0.1-0.3,0.2-0.6,0.3-0.9c2.7-4.5,4.3-10.7,7.3-15.1S76.1,9.2,82,6.1S94.8,0,106.2,0"/>
<path class="st1" d="M150.9,0.1C150.9,0,150.9,0,150.9,0.1l2.9-0.1h0l3.2,0c0,0,0,0,0,0l0.6,0v0l71.2,0.1L300.1,0v0l0.6,0
	c0,0,0,0,0,0l6.1,0c0,0,0,0,0,0.1h13.7l7.4-0.1c-13.3,0.8-14.1,2.6-20.2,5.8c-3.5,1.9-11.4,14-12.9,17.8c-1.6,3.7-5.4,11.8-7,14.3
	c-1.5,2.5-4.8,9.5-9.6,12.7c-4.3,2.8-9.2,5.9-20.2,8.8c-28,7.5-47,5.3-66.5-2.9c-6-2.5-10.9-5.8-15-9.9c-3.3-2.9-7.2-8.4-7.5-8.9
	c-2.1-4.1-3.3-6.4-3.3-6.4s-1.8-4.1-6.1-10.4s-8.3-11.4-14.1-14.9c-5-2.9-9.6-5.9-27.2-5.9"/>
<rect x="56.1" y="-296.3" class="st0" width="32.5" height="22.6"/>
<path class="st1" d="M-6.4-12.3"/>
</svg>
