<?xml version="1.0" encoding="utf-8"?>
<!-- Generator: Adobe Illustrator 23.1.0, SVG Export Plug-In . SVG Version: 6.00 Build 0)  -->
<svg version="1.1" id="Layer_1" xmlns="http://www.w3.org/2000/svg" xmlns:xlink="http://www.w3.org/1999/xlink" x="0px" y="0px"
	 viewBox="0 0 211.9 64" style="enable-background:new 0 0 211.9 64;" xml:space="preserve">
<style type="text/css">
	.st0{fill:#110E0E;}
	.st1{fill:#FFFFFF;}
</style>
<path class="st0" d="M317.2-252.6c-6.1-22.2-25.5-42.5-46.7-51.4c-19.5-8.2-43.8-10.3-64.5-5.9c-0.6,0.1-1.2,0.3-1.8,0.4v13.2h-18.1
	c-2.8,6-6.3,11.7-9.4,17.1c-1.1,2-2.2,4-3.4,5.9c-2.6,7-4.6,14.4-5.6,20.7L317.2-252.6z"/>
<path class="st1" d="M181.2,0.1C181.2,0,181.2,0,181.2,0.1L178.3,0h0l-3.2,0c0,0,0,0,0,0h-0.6v0l-71.2,0.1L32,0v0h-0.6c0,0,0,0,0,0
	l-6.1,0c0,0,0,0,0,0.1H11.6L4.3,0c13.3,0.8,14.1,2.6,20.2,5.8c3.5,1.9,11.4,14,12.9,17.8c1.6,3.7,5.4,11.8,7,14.3s4.8,9.5,9.6,12.7
	c4.3,2.8,9.2,5.9,20.2,8.8c28,7.5,47,5.3,66.5-2.9c6-2.5,10.9-5.8,15-9.9c3.3-2.9,6-6.5,8.3-10.3c0.1-0.3,0.2-0.6,0.3-0.9
	c2.7-4.5,5.1-9.5,7.3-15.1c3.4-5.9,7.3-11.7,13.1-15.4c3.7-2.5,8.9-4.9,18.1-4.9"/>
<rect x="163.3" y="-296.3" class="st0" width="32.5" height="22.6"/>
<path class="st1" d="M100.7-12.3"/>
</svg>
