<?xml version="1.0" encoding="utf-8"?>
<!-- Generator: Adobe Illustrator 16.0.0, SVG Export Plug-In . SVG Version: 6.00 Build 0)  -->
<!DOCTYPE svg PUBLIC "-//W3C//DTD SVG 1.1//EN" "http://www.w3.org/Graphics/SVG/1.1/DTD/svg11.dtd">
<svg version="1.1" id="Layer_1" xmlns="http://www.w3.org/2000/svg" xmlns:xlink="http://www.w3.org/1999/xlink" x="0px" y="0px"
	 width="20px" height="17.952px" viewBox="0 0 20 17.952" enable-background="new 0 0 20 17.952" xml:space="preserve">
<g>
	<path display="none" fill-rule="evenodd" clip-rule="evenodd" fill="#FEFEFE" d="M-25.621,645.526
		c-165.167,0-330.334-0.015-495.5,0.094c-3.75,0.003-4.594-0.845-4.594-4.594c0.102-330.333,0.102-660.667,0-991
		c0-3.749,0.845-4.595,4.594-4.593c330.333,0.101,660.667,0.101,991,0c3.749-0.002,4.594,0.844,4.593,4.593
		c-0.101,330.333-0.101,660.667,0,991c0.002,3.749-0.844,4.597-4.593,4.594C304.712,645.512,139.546,645.526-25.621,645.526z
		 M-85.122,186.949c2.086-4.85,5.042-8.642,9.023-11.907c9.664-7.927,20.116-13.277,32.807-15.21
		c23.07-3.514,43.868,0.721,62.223,15.245c5.891,4.662,10.47,10.649,13.769,17.494c1.288,2.673,1.384,4.665-1.893,6.353
		c-5.475,2.82-10.368,6.646-14.778,10.938c-10.23,9.955-18.962,21.044-22.077,35.33c-2.383,10.929-0.179,22.062,2.695,32.384
		c6.975,25.055,21.209,44.75,46.541,54.486c12.827,4.931,26.076,3.916,39.333,2.463c15.054-1.65,29.289-5.583,41.284-15.341
		c14.173-11.53,23.582-25.545,22.586-44.782c-0.523-10.126-2.178-19.999-4.948-29.803c-7.135-25.251-21.927-43.913-45.981-54.77
		c-2.965-1.339-3.119-2.455-1.985-5.029c6.112-13.869,20.636-21.204,37.009-18.943c9.733,1.344,19.078,3.914,28.111,7.658
		c12.827,5.316,24.854,11.869,33.551,23.164c5.719,7.426,5.285,7.082-1.156,13.464c-14.66,14.526-26.117,29.827-23.023,53.093
		c2.533,19.055,8.851,35.407,20.982,49.904c13.297,15.889,30.264,23.638,50.971,23.49c9.678-0.069,19.176-1.483,28.679-3.061
		c33.544-5.566,55.182-34.283,50.867-67.871c-2.951-22.971-10.195-44.074-27.738-60.387c-1.382-1.285-1.949-2.383-0.7-4.25
		c1.469-2.196,2.393-4.851,4.657-6.364c9.949-6.651,19.905-13.1,32.838-11.92c3.684,0.336,7.437,1.672,11.283,0.275
		c10.777-3.914,20.193-9.514,27.658-18.605c8.733-10.639,9.731-21.819,3.918-33.732c-9.086-18.623-23.337-31.962-42.392-40.206
		c-14.235-6.159-28.272-12.796-42.629-18.653c-15.383-6.277-28.558-16.646-43.838-23.013c-10.392-4.328-20.321-9.623-30.549-14.267
		c-47.09-21.382-93.912-43.321-140.373-66.037C43.044-45.423,14.793-59.626-11.136-78.513
		C-49.951-106.788-62.6-146.002-62.26-191.405c0.071-9.594,1.763-19.171,2.593-28.766c1.715-19.822,4.929-39.412,8.646-58.945
		c2.011-10.56,4.495-21.084,4.395-31.956c-0.036-3.825-1.237-5.871-5.53-6.671c-16.744-3.122-31.506,1.837-45.176,10.75
		c-13.341,8.697-26.312,17.965-39.416,27.024c-12.38,8.56-24.145,18.037-38.221,23.964c-12.467,5.249-25.57,7.608-38.784,9.787
		c-18.612,3.067-37.084,6.953-56.018,7.935c-5.979,0.31-11.974,0.379-17.939,0.855c-2.589,0.207-5.651,0.389-4.348,4.606
		c7.382,23.881,12.903,48.081,14.731,73.146c1.246,17.059,2.57,34.115,3.514,51.191c1.599,28.963-4.729,57.025-10.133,85.18
		c-6.518,33.944-17.223,66.663-28.841,99.125c-7.716,21.56-15.216,43.194-22.904,64.764c-2.325,6.521-5.042,12.901-7.405,19.41
		c-0.907,2.499-1.688,5.152,2.095,6.44c7.726,2.63,14.598,6.954,21.183,11.631c4.536,3.222,7.688,7.75,9.4,13.158
		c0.316,1.002,1.203,1.547-0.67,2.468c-11.692,5.751-21.063,14.326-28.889,24.673c-5.813,7.685-11.299,15.537-13.697,25.074
		c-2.938,11.682-0.643,23.412,2.375,34.319c6.93,25.047,21.307,44.733,46.66,54.384c12.648,4.814,25.746,3.842,38.854,2.406
		c15.232-1.668,29.615-5.598,41.741-15.483c14.18-11.559,23.291-25.634,22.493-44.858c-0.521-12.545-3.104-24.666-7.25-36.359
		c-9.64-27.188-28.256-44.919-56.725-52.106c-0.236-0.611,0.31-1.276,0.663-2.022c4.287-9.039,12.129-13.885,20.987-17.181
		c19.187-7.142,39.111-9.267,59.205-5.818c21.486,3.688,39.468,13.319,49.34,34.438c-7.625,3.724-14.747,8.267-20.942,14.103
		c-10.663,10.045-19.607,21.389-22.781,36.005c-2.365,10.891-0.194,22.061,2.701,32.386c7.02,25.04,21.278,44.735,46.607,54.438
		c12.647,4.845,25.729,3.876,38.842,2.469c15.246-1.637,29.628-5.563,41.764-15.423c14.188-11.526,23.385-25.574,22.591-44.811
		c-0.421-10.187-2.436-20.027-5.128-29.765C-39.516,216.206-56.924,196.696-85.122,186.949z"/>
	<g>
		<path fill-rule="evenodd" clip-rule="evenodd" fill="#131211" d="M2.479,15.885c-0.002,0.226-0.176,0.398-0.395,0.393
			c-0.25-0.007-0.463-0.209-0.456-0.433c0.008-0.239,0.183-0.391,0.447-0.39C2.288,15.456,2.48,15.66,2.479,15.885z"/>
		<g>
			<path fill-rule="evenodd" clip-rule="evenodd" fill="#151413" d="M7.394,13.852c0.772,0.267,1.25,0.802,1.465,1.578
				c0.073,0.267,0.129,0.536,0.14,0.815c0.022,0.527-0.229,0.912-0.618,1.228c-0.333,0.271-0.727,0.378-1.145,0.423
				c-0.358,0.038-0.718,0.064-1.063-0.068c-0.694-0.266-1.085-0.805-1.277-1.491c-0.079-0.282-0.139-0.589-0.074-0.887
				c0.088-0.4,0.332-0.711,0.625-0.986c0.169-0.16,0.364-0.284,0.573-0.387c-0.271-0.578-0.763-0.842-1.352-0.943
				c-0.551-0.095-1.097-0.036-1.622,0.159c-0.242,0.091-0.457,0.224-0.575,0.471c-0.009,0.021-0.024,0.039-0.018,0.056
				c0.779,0.197,1.29,0.683,1.554,1.428c0.113,0.32,0.185,0.652,0.198,0.996c0.022,0.526-0.228,0.912-0.616,1.229
				c-0.332,0.271-0.726,0.379-1.143,0.424c-0.359,0.04-0.719,0.066-1.064-0.065c-0.695-0.265-1.089-0.804-1.278-1.49
				c-0.083-0.299-0.146-0.62-0.065-0.939c0.065-0.262,0.216-0.477,0.375-0.688c0.215-0.283,0.472-0.519,0.792-0.676
				c0.051-0.025,0.026-0.04,0.018-0.067c-0.047-0.148-0.133-0.272-0.257-0.36c-0.181-0.128-0.369-0.247-0.58-0.319
				c-0.104-0.035-0.083-0.107-0.058-0.176c0.064-0.179,0.139-0.354,0.202-0.532c0.211-0.591,0.416-1.184,0.628-1.773
				c0.318-0.89,0.611-1.786,0.79-2.716c0.148-0.771,0.321-1.54,0.277-2.334C2.199,5.29,2.163,4.823,2.129,4.355
				c-0.051-0.687-0.201-1.35-0.404-2.004c-0.035-0.115,0.049-0.12,0.119-0.126c0.164-0.013,0.328-0.015,0.492-0.023
				C2.854,2.176,3.36,2.069,3.87,1.985c0.362-0.06,0.721-0.125,1.063-0.269c0.386-0.162,0.708-0.422,1.047-0.656
				c0.359-0.248,0.715-0.502,1.08-0.74c0.374-0.244,0.778-0.38,1.237-0.295c0.118,0.022,0.15,0.078,0.151,0.183
				c0.003,0.298-0.065,0.587-0.12,0.876C8.227,1.619,8.139,2.155,8.092,2.698C8.068,2.961,8.022,3.224,8.021,3.486
				c-0.01,1.244,0.337,2.318,1.4,3.093c0.71,0.518,1.484,0.906,2.267,1.289c1.272,0.622,2.556,1.224,3.846,1.81
				c0.279,0.127,0.552,0.271,0.837,0.391c0.418,0.174,0.779,0.458,1.2,0.63c0.394,0.161,0.778,0.343,1.168,0.512
				c0.522,0.226,0.912,0.591,1.161,1.101c0.159,0.327,0.132,0.633-0.106,0.925c-0.205,0.249-0.463,0.402-0.758,0.51
				c-0.105,0.038-0.209,0.001-0.31-0.008c-0.354-0.032-0.627,0.145-0.899,0.326c-0.063,0.042-0.088,0.114-0.128,0.175
				c-0.034,0.051-0.019,0.081,0.02,0.116c0.48,0.447,0.679,1.025,0.76,1.654c0.118,0.92-0.475,1.707-1.394,1.859
				c-0.26,0.043-0.521,0.082-0.785,0.084c-0.567,0.004-1.032-0.208-1.396-0.644c-0.333-0.397-0.506-0.846-0.575-1.367
				c-0.085-0.638,0.229-1.057,0.631-1.454c0.177-0.175,0.188-0.166,0.031-0.369c-0.238-0.31-0.567-0.489-0.919-0.635
				c-0.247-0.103-0.503-0.173-0.77-0.21c-0.449-0.062-0.847,0.14-1.014,0.52c-0.031,0.07-0.027,0.101,0.054,0.138
				c0.659,0.297,1.064,0.809,1.26,1.5c0.076,0.269,0.121,0.539,0.136,0.816c0.027,0.527-0.23,0.911-0.619,1.227
				c-0.328,0.268-0.719,0.375-1.131,0.421c-0.363,0.039-0.726,0.067-1.077-0.067c-0.694-0.267-1.084-0.807-1.275-1.493
				c-0.078-0.282-0.139-0.588-0.073-0.887c0.085-0.392,0.324-0.695,0.604-0.968c0.121-0.118,0.255-0.223,0.405-0.3
				c0.089-0.047,0.087-0.101,0.052-0.174c-0.091-0.188-0.216-0.352-0.378-0.479c-0.502-0.398-1.072-0.514-1.704-0.418
				c-0.348,0.053-0.634,0.2-0.899,0.417C7.532,13.615,7.451,13.719,7.394,13.852z M7.895,3.575c-0.035,0.017-0.06,0.028-0.084,0.04
				c-0.736,0.35-1.487,0.658-2.285,0.839C5.207,4.526,4.89,4.612,4.56,4.607c-0.281-0.005-0.433-0.096-0.486-0.29
				C4.029,4.159,4.002,4,4.008,3.833c0.004-0.119,0.049-0.188,0.165-0.214c0.27-0.063,0.536-0.14,0.808-0.187
				C5.688,3.31,6.371,3.114,7.002,2.766C7.354,2.57,7.733,2.409,8,2.086c0.033-0.04,0.06-0.073,0.067-0.129
				c0.026-0.202,0.063-0.402,0.096-0.604c0.058-0.354,0.143-0.702,0.176-1.06c0.013-0.139-0.051-0.17-0.169-0.179
				C7.814,0.085,7.489,0.177,7.197,0.367C6.759,0.654,6.326,0.949,5.902,1.256c-0.42,0.303-0.847,0.585-1.355,0.713
				c-0.33,0.083-0.668,0.126-1.003,0.188c-0.51,0.095-1.023,0.161-1.542,0.175C1.818,2.337,1.816,2.335,1.874,2.505
				c0.328,0.977,0.385,1.992,0.445,3.009C2.347,5.976,2.349,6.435,2.277,6.89c-0.134,0.86-0.31,1.713-0.541,2.553
				C1.693,9.595,1.695,9.604,1.857,9.592C2.11,9.572,2.362,9.53,2.615,9.514c0.441-0.03,0.884-0.012,1.326,0
				c0.185,0.006,0.37,0.034,0.551,0.084C4.657,9.644,4.715,9.73,4.727,9.905c0.02,0.307-0.096,0.58-0.205,0.854
				c-0.109,0.273-0.235,0.539-0.298,0.832c-0.031,0.146,0.029,0.184,0.143,0.19c0.595,0.039,1.189,0.083,1.784,0.107
				c0.557,0.022,1.109-0.063,1.664-0.073c1.176-0.019,2.353-0.026,3.525,0.082c0.168,0.016,0.336,0.016,0.504,0.028
				c0.449,0.033,0.897,0.075,1.347,0.103c0.29,0.019,0.578,0.054,0.865,0.1c0.427,0.067,0.854,0.131,1.284,0.146
				c0.31,0.011,0.619,0.012,0.929-0.023c0.343-0.039,0.666-0.109,0.956-0.318c0.181-0.131,0.357-0.268,0.531-0.406
				c0.125-0.101,0.215-0.234,0.299-0.371c0.043-0.07,0.043-0.115-0.053-0.149c-0.154-0.055-0.3-0.133-0.451-0.193
				c-0.392-0.156-0.729-0.415-1.11-0.584c-0.628-0.278-1.241-0.588-1.869-0.868c-0.872-0.388-1.733-0.802-2.59-1.224
				c-0.751-0.37-1.524-0.7-2.218-1.177C9.278,6.628,8.809,6.272,8.476,5.772C8.426,5.697,8.387,5.577,8.321,5.56
				C8.257,5.542,8.166,5.633,8.083,5.668C7.463,5.93,6.826,6.139,6.166,6.28c-0.41,0.088-0.823,0.138-1.243,0.136
				C4.638,6.414,4.525,6.333,4.448,6.063C4.42,5.962,4.397,5.859,4.383,5.757c-0.03-0.222,0.014-0.286,0.229-0.339
				c0.084-0.021,0.17-0.039,0.256-0.04c0.685-0.012,1.34-0.178,1.98-0.396C7.236,4.851,7.605,4.671,7.895,4.36
				c0.049-0.052,0.066-0.103,0.059-0.171C7.933,3.991,7.915,3.792,7.895,3.575z M0.426,13.165c0.277-0.045,0.532-0.078,0.783-0.13
				c0.654-0.136,1.318-0.191,1.98-0.264c0.38-0.041,0.756-0.101,1.137-0.127c0.331-0.023,0.66-0.084,0.991-0.088
				c0.995-0.013,1.99-0.005,2.985-0.009c0.283-0.002,0.565,0.01,0.846,0.038c0.575,0.058,1.15,0.102,1.728,0.128
				c0.25,0.011,0.501,0.02,0.751,0.036c0.453,0.032,0.906,0.073,1.359,0.103c0.463,0.029,0.922,0.077,1.372,0.188
				c0.351,0.087,0.692,0.216,1.047,0.271c0.519,0.081,1.045,0.118,1.568,0.166c0.542,0.051,1.085,0.098,1.628,0.135
				c0.125,0.009,0.251,0.041,0.377,0.015c0.364-0.077,0.628-0.299,0.825-0.6c0.086-0.13,0.108-0.285,0.075-0.444
				c-0.064-0.301-0.25-0.529-0.442-0.753c-0.267-0.309-0.624-0.477-0.993-0.624c-0.075-0.03-0.15-0.102-0.22-0.095
				c-0.085,0.008-0.082,0.129-0.129,0.195c-0.272,0.381-0.653,0.626-1.044,0.861c-0.313,0.188-0.671,0.187-1.014,0.212
				c-0.605,0.046-1.213-0.004-1.81-0.112c-0.597-0.107-1.201-0.128-1.802-0.181c-0.322-0.027-0.646-0.04-0.968-0.062
				c-0.509-0.033-1.017-0.093-1.525-0.099c-1.085-0.014-2.169-0.017-3.253,0.069c-0.705,0.056-1.41-0.069-2.116-0.08
				c-0.107-0.002-0.216-0.029-0.322-0.051c-0.119-0.023-0.166-0.099-0.143-0.22c0.05-0.249,0.121-0.489,0.229-0.721
				c0.114-0.245,0.211-0.498,0.274-0.763c0.079-0.332,0.016-0.424-0.309-0.491C4.014,9.613,3.73,9.635,3.45,9.61
				C3.112,9.581,2.777,9.622,2.44,9.64C2.201,9.653,1.964,9.721,1.722,9.68C1.652,9.668,1.647,9.721,1.635,9.758
				c-0.123,0.353-0.242,0.707-0.365,1.061c-0.209,0.601-0.418,1.2-0.631,1.8C0.576,12.796,0.503,12.97,0.426,13.165z M11.559,17.816
				c0.327-0.022,0.678-0.039,1.008-0.168c0.527-0.205,0.91-0.552,1.042-1.12c0.057-0.242,0.011-0.488-0.037-0.729
				c-0.108-0.553-0.305-1.06-0.75-1.435c-0.306-0.258-0.646-0.451-1.06-0.439c-0.688,0.021-1.249,0.326-1.709,0.825
				c-0.13,0.141-0.255,0.297-0.306,0.48c-0.094,0.337-0.087,0.684-0.021,1.027c0.059,0.307,0.215,0.566,0.394,0.816
				C10.469,17.561,10.938,17.811,11.559,17.816z M2.03,17.816c0.326-0.023,0.677-0.04,1.008-0.169
				c0.526-0.206,0.908-0.556,1.038-1.123c0.057-0.242,0.009-0.489-0.039-0.73c-0.12-0.611-0.356-1.154-0.881-1.535
				c-0.341-0.248-0.719-0.396-1.138-0.326c-0.563,0.094-1.063,0.341-1.456,0.769c-0.146,0.158-0.292,0.328-0.35,0.533
				c-0.096,0.341-0.086,0.692-0.016,1.04c0.061,0.303,0.216,0.558,0.393,0.804C0.938,17.563,1.408,17.813,2.03,17.816z
				 M6.833,17.815c0.323-0.021,0.674-0.039,1.004-0.17c0.52-0.205,0.901-0.55,1.031-1.113c0.065-0.289-0.001-0.578-0.063-0.863
				c-0.125-0.568-0.372-1.063-0.858-1.413c-0.37-0.267-0.774-0.396-1.231-0.306c-0.441,0.088-0.836,0.281-1.178,0.572
				c-0.228,0.194-0.433,0.422-0.526,0.705c-0.108,0.331-0.089,0.683-0.025,1.026c0.059,0.312,0.218,0.576,0.401,0.828
				C5.736,17.565,6.207,17.814,6.833,17.815z M16.312,17.841c0.114-0.002,0.228-0.017,0.34-0.024
				c0.482-0.033,0.924-0.171,1.282-0.504c0.267-0.248,0.467-0.548,0.456-0.928c-0.024-0.788-0.221-1.507-0.859-2.042
				c-0.372-0.312-0.797-0.427-1.267-0.369c-0.383,0.046-0.72,0.222-1.036,0.435c-0.301,0.202-0.548,0.466-0.688,0.797
				c-0.145,0.343-0.111,0.714-0.048,1.075c0.055,0.313,0.217,0.576,0.399,0.829C15.242,17.593,15.713,17.842,16.312,17.841z
				 M4.528,3.868c-0.11,0.011-0.157,0.081-0.155,0.177c0,0.091,0.065,0.146,0.152,0.138c0.093-0.008,0.167-0.066,0.167-0.167
				C4.692,3.916,4.611,3.883,4.528,3.868z M4.887,6.066C4.973,6.06,5.043,6.021,5.051,5.924C5.058,5.825,4.988,5.772,4.9,5.767
				C4.807,5.76,4.748,5.815,4.745,5.914C4.743,6.006,4.791,6.056,4.887,6.066z"/>
			<path fill-rule="evenodd" clip-rule="evenodd" fill="#BF4937" d="M7.895,3.575c0.021,0.217,0.038,0.416,0.059,0.614
				c0.008,0.068-0.01,0.119-0.059,0.171c-0.289,0.311-0.658,0.49-1.047,0.622C6.207,5.2,5.552,5.366,4.867,5.378
				c-0.086,0.001-0.172,0.02-0.256,0.04C4.396,5.471,4.353,5.535,4.383,5.757C4.397,5.859,4.42,5.962,4.448,6.063
				c0.077,0.271,0.189,0.352,0.475,0.354c0.42,0.002,0.833-0.048,1.243-0.136c0.66-0.142,1.297-0.351,1.917-0.612
				C8.166,5.633,8.257,5.542,8.321,5.56c0.065,0.018,0.104,0.138,0.154,0.213c0.333,0.5,0.803,0.855,1.288,1.188
				c0.693,0.477,1.467,0.807,2.218,1.177c0.856,0.422,1.718,0.836,2.59,1.224c0.628,0.28,1.241,0.59,1.869,0.868
				c0.382,0.169,0.719,0.428,1.11,0.584c0.151,0.061,0.297,0.139,0.451,0.193c0.096,0.034,0.096,0.079,0.053,0.149
				c-0.084,0.137-0.174,0.271-0.299,0.371c-0.174,0.139-0.351,0.275-0.531,0.406c-0.29,0.209-0.613,0.279-0.956,0.318
				c-0.31,0.035-0.619,0.034-0.929,0.023c-0.431-0.016-0.857-0.079-1.284-0.146c-0.287-0.046-0.575-0.081-0.865-0.1
				c-0.449-0.027-0.897-0.069-1.347-0.103c-0.168-0.013-0.336-0.013-0.504-0.028c-1.173-0.108-2.35-0.101-3.525-0.082
				c-0.555,0.01-1.107,0.096-1.664,0.073c-0.595-0.024-1.189-0.068-1.784-0.107c-0.113-0.007-0.174-0.044-0.143-0.19
				c0.063-0.293,0.188-0.559,0.298-0.832c0.109-0.274,0.225-0.548,0.205-0.854C4.715,9.73,4.657,9.644,4.492,9.598
				C4.312,9.548,4.126,9.52,3.941,9.514c-0.442-0.012-0.885-0.03-1.326,0C2.362,9.53,2.11,9.572,1.857,9.592
				C1.695,9.604,1.693,9.595,1.736,9.442C1.968,8.603,2.144,7.75,2.277,6.89c0.071-0.455,0.069-0.914,0.042-1.376
				C2.259,4.497,2.202,3.481,1.874,2.505c-0.058-0.17-0.056-0.168,0.128-0.173c0.519-0.014,1.032-0.08,1.542-0.175
				c0.335-0.063,0.673-0.105,1.003-0.188c0.509-0.128,0.936-0.41,1.355-0.713c0.424-0.307,0.856-0.602,1.295-0.889
				c0.292-0.19,0.617-0.282,0.973-0.253c0.118,0.009,0.182,0.04,0.169,0.179C8.306,0.65,8.221,0.999,8.163,1.353
				C8.131,1.555,8.094,1.755,8.067,1.957C8.06,2.013,8.033,2.046,8,2.086C7.733,2.409,7.354,2.57,7.002,2.766
				C6.371,3.114,5.688,3.31,4.98,3.433C4.709,3.479,4.442,3.557,4.173,3.619C4.057,3.646,4.012,3.714,4.008,3.833
				C4.002,4,4.029,4.159,4.073,4.317c0.054,0.194,0.205,0.285,0.486,0.29c0.33,0.005,0.647-0.081,0.966-0.153
				c0.798-0.181,1.549-0.489,2.285-0.839C7.835,3.604,7.859,3.592,7.895,3.575z"/>
			<path fill-rule="evenodd" clip-rule="evenodd" fill="#FDFDFC" d="M0.426,13.165c0.077-0.195,0.15-0.369,0.213-0.547
				c0.213-0.6,0.422-1.199,0.631-1.8c0.123-0.354,0.242-0.708,0.365-1.061c0.013-0.037,0.018-0.09,0.087-0.078
				C1.964,9.721,2.201,9.653,2.44,9.64C2.777,9.622,3.112,9.581,3.45,9.61c0.28,0.024,0.563,0.003,0.843,0.062
				c0.324,0.067,0.388,0.159,0.309,0.491c-0.063,0.265-0.16,0.518-0.274,0.763c-0.107,0.231-0.179,0.472-0.229,0.721
				c-0.023,0.121,0.023,0.196,0.143,0.22c0.106,0.021,0.215,0.049,0.322,0.051c0.706,0.011,1.411,0.136,2.116,0.08
				c1.084-0.086,2.168-0.083,3.253-0.069c0.509,0.006,1.017,0.065,1.525,0.099c0.322,0.021,0.646,0.034,0.968,0.062
				c0.601,0.053,1.205,0.073,1.802,0.181c0.597,0.108,1.204,0.158,1.81,0.112c0.343-0.025,0.701-0.024,1.014-0.212
				c0.391-0.235,0.771-0.48,1.044-0.861c0.047-0.066,0.044-0.188,0.129-0.195c0.069-0.007,0.145,0.064,0.22,0.095
				c0.369,0.147,0.727,0.315,0.993,0.624c0.192,0.224,0.378,0.452,0.442,0.753c0.033,0.159,0.011,0.314-0.075,0.444
				c-0.197,0.301-0.461,0.522-0.825,0.6c-0.126,0.026-0.252-0.006-0.377-0.015c-0.543-0.037-1.086-0.084-1.628-0.135
				c-0.523-0.048-1.05-0.085-1.568-0.166c-0.354-0.056-0.696-0.185-1.047-0.271c-0.45-0.111-0.909-0.159-1.372-0.188
				c-0.453-0.029-0.906-0.07-1.359-0.103c-0.25-0.017-0.501-0.025-0.751-0.036c-0.577-0.026-1.152-0.07-1.728-0.128
				c-0.28-0.028-0.563-0.04-0.846-0.038c-0.995,0.004-1.99-0.004-2.985,0.009c-0.331,0.004-0.66,0.064-0.991,0.088
				c-0.381,0.026-0.757,0.086-1.137,0.127c-0.662,0.072-1.326,0.128-1.98,0.264C0.958,13.087,0.703,13.12,0.426,13.165z"/>
			<path fill-rule="evenodd" clip-rule="evenodd" fill="#585452" d="M11.559,17.816c-0.621-0.006-1.09-0.256-1.438-0.742
				c-0.179-0.25-0.335-0.51-0.394-0.816c-0.066-0.344-0.073-0.69,0.021-1.027c0.051-0.184,0.176-0.34,0.306-0.48
				c0.46-0.499,1.021-0.805,1.709-0.825c0.413-0.012,0.754,0.182,1.06,0.439c0.445,0.375,0.642,0.882,0.75,1.435
				c0.048,0.241,0.094,0.487,0.037,0.729c-0.132,0.568-0.515,0.915-1.042,1.12C12.236,17.777,11.886,17.794,11.559,17.816z
				 M12.012,15.878c0-0.222-0.195-0.424-0.409-0.423c-0.318,0.002-0.425,0.179-0.438,0.396c-0.014,0.224,0.214,0.427,0.46,0.426
				C11.871,16.276,12.008,16.098,12.012,15.878z"/>
			<path fill-rule="evenodd" clip-rule="evenodd" fill="#585452" d="M2.03,17.816c-0.622-0.004-1.093-0.253-1.44-0.738
				c-0.177-0.246-0.332-0.501-0.393-0.804c-0.07-0.348-0.08-0.699,0.016-1.04c0.058-0.205,0.204-0.375,0.35-0.533
				c0.394-0.428,0.893-0.675,1.456-0.769c0.419-0.07,0.797,0.078,1.138,0.326c0.524,0.381,0.761,0.924,0.881,1.535
				c0.048,0.241,0.096,0.488,0.039,0.73c-0.13,0.567-0.512,0.917-1.038,1.123C2.707,17.776,2.356,17.793,2.03,17.816z M2.479,15.885
				c0.002-0.225-0.19-0.429-0.403-0.43c-0.265-0.001-0.439,0.15-0.447,0.39c-0.007,0.224,0.206,0.426,0.456,0.433
				C2.303,16.283,2.477,16.11,2.479,15.885z"/>
			<path fill-rule="evenodd" clip-rule="evenodd" fill="#585452" d="M6.833,17.815c-0.626-0.001-1.097-0.25-1.446-0.733
				c-0.184-0.252-0.343-0.517-0.401-0.828c-0.063-0.344-0.083-0.695,0.025-1.026c0.094-0.283,0.299-0.511,0.526-0.705
				c0.342-0.291,0.736-0.484,1.178-0.572c0.457-0.091,0.861,0.039,1.231,0.306c0.486,0.351,0.733,0.845,0.858,1.413
				c0.063,0.285,0.129,0.574,0.063,0.863c-0.13,0.563-0.512,0.908-1.031,1.113C7.507,17.776,7.156,17.794,6.833,17.815z
				 M6.854,15.455c-0.317,0.006-0.423,0.192-0.428,0.405c-0.007,0.226,0.229,0.424,0.468,0.417c0.222-0.006,0.381-0.178,0.379-0.408
				C7.271,15.651,7.069,15.453,6.854,15.455z"/>
			<path fill-rule="evenodd" clip-rule="evenodd" fill="#585452" d="M16.312,17.841c-0.599,0.001-1.069-0.248-1.42-0.731
				c-0.183-0.253-0.345-0.517-0.399-0.829c-0.063-0.361-0.097-0.732,0.048-1.075c0.14-0.331,0.387-0.595,0.688-0.797
				c0.316-0.213,0.653-0.389,1.036-0.435c0.47-0.058,0.895,0.058,1.267,0.369c0.639,0.535,0.835,1.254,0.859,2.042
				c0.011,0.38-0.189,0.68-0.456,0.928c-0.358,0.333-0.8,0.471-1.282,0.504C16.539,17.824,16.426,17.839,16.312,17.841z
				 M16.363,15.482c-0.319,0.005-0.424,0.188-0.433,0.402c-0.009,0.226,0.224,0.424,0.466,0.42c0.222-0.003,0.383-0.175,0.382-0.405
				C16.777,15.681,16.579,15.48,16.363,15.482z"/>
			<path fill-rule="evenodd" clip-rule="evenodd" fill="#EFEFEE" d="M4.528,3.868c0.083,0.015,0.164,0.048,0.164,0.147
				c0,0.101-0.074,0.159-0.167,0.167C4.438,4.191,4.373,4.136,4.373,4.045C4.371,3.949,4.418,3.879,4.528,3.868z"/>
			<path fill-rule="evenodd" clip-rule="evenodd" fill="#F4F4F3" d="M4.887,6.066C4.791,6.056,4.743,6.006,4.745,5.914
				C4.748,5.815,4.807,5.76,4.9,5.767c0.088,0.006,0.157,0.059,0.15,0.157C5.043,6.021,4.973,6.06,4.887,6.066z"/>
			<path fill-rule="evenodd" clip-rule="evenodd" fill="#131211" d="M12.012,15.878c-0.004,0.22-0.141,0.398-0.388,0.399
				c-0.246,0.001-0.474-0.202-0.46-0.426c0.014-0.218,0.12-0.395,0.438-0.396C11.816,15.454,12.012,15.656,12.012,15.878z"/>
			<path fill-rule="evenodd" clip-rule="evenodd" fill="#131211" d="M6.854,15.455c0.216-0.002,0.417,0.196,0.419,0.414
				c0.002,0.23-0.157,0.402-0.379,0.408c-0.239,0.007-0.475-0.191-0.468-0.417C6.431,15.647,6.536,15.461,6.854,15.455z"/>
			<path fill-rule="evenodd" clip-rule="evenodd" fill="#131211" d="M16.363,15.482c0.216-0.002,0.414,0.198,0.415,0.417
				c0.001,0.23-0.16,0.402-0.382,0.405c-0.242,0.004-0.475-0.194-0.466-0.42C15.939,15.671,16.044,15.487,16.363,15.482z"/>
		</g>
	</g>
</g>
</svg>
